<?xml version="1.0" encoding="utf-8"?>
<!-- Generator: Adobe Illustrator 23.0.1, SVG Export Plug-In . SVG Version: 6.00 Build 0)  -->
<svg version="1.1" id="Layer_1" xmlns="http://www.w3.org/2000/svg" xmlns:xlink="http://www.w3.org/1999/xlink" x="0px" y="0px"
	 viewBox="0 0 1000 1000" style="enable-background:new 0 0 1000 1000;" xml:space="preserve">
<style type="text/css">
	.st0{fill-rule:evenodd;clip-rule:evenodd;}
</style>
<g>
	<path class="st0" d="M360.4,95.2c86.2-0.5,172.5-0.1,258.7-0.2c29-0.3,58.3,1.8,86.3,9.8c60.2,16.6,112.2,60.4,138.6,117
		c26.5,55.2,28,121.7,4,178c-22.9,55.3-69.8,100-126.1,120.4c-31.7,11.9-65.9,15.5-99.5,15.3c-83.6,0-167.2,0.1-250.8,0
		c-36.2-0.1-73.1-5.4-106.3-20.5c-46.5-20.4-85.4-57.7-107.7-103.3c-24.5-49.2-29.1-107.8-12.9-160.2
		c12.9-41.7,38.3-79.6,72.6-106.6c27.7-22.5,61.2-37.5,96.1-44.4C329,97.7,344.6,95.4,360.4,95.2L360.4,95.2z M313.6,256
		c-13.8,9.3-24,23.7-28.6,39.7c-5,18.7-2.8,39.4,7.4,56c12.1,20.9,35.2,34,59,36.2l299.1-0.1c16.9-2.3,33.9-9,46-21.4
		c10.9-10.4,18.2-24.5,20.4-39.4c4.3-23.7-4.8-49.2-22.9-65.1c-15.6-14.4-37.4-20.1-58.3-20c-89.7,0-179.4,0-269.1,0
		C348.1,241.5,328.9,245.2,313.6,256L313.6,256z"/>
	<path class="st0" d="M582.2,645.3c13.2-0.1,26.3-0.1,39.5,0c0,85,0,170.1,0,255.1c-13.2,0.2-26.3,0.1-39.5,0.1
		C582.3,815.4,582.3,730.3,582.2,645.3L582.2,645.3z"/>
	<path class="st0" d="M891.6,737.4c16.3-10,36.4-12.2,55.1-9.7c16.5,1.9,32,8.9,45.6,18.2c-6.8,8.7-13.2,17.7-19.5,26.7
		c-6.6-3.2-12.8-6.6-19.8-8.4c-13.1-4.8-35.7-6.1-45.5,5.7c-4.7,5.9-2,15.3,4.6,18.4c13.3,7.6,29.3,7.9,43.6,12.9
		c15,4.6,30.1,12.7,38.2,26.7c7,11.6,7.5,26.3,3.2,38.9c-5.5,15.8-18.9,27.6-34.5,33.1c-35.6,12.1-76.4,2.4-104.9-21.3
		c6.9-9.4,13.7-18.8,21.1-27.8c15,10.3,32.2,18.9,50.9,18.8c10.6,0.5,22.7-1.1,30-9.6c5.9-7.1,3-16.4-4.1-21.3
		c-6.2-4.3-13.6-6.8-21-8.2c-16.2-3.8-33.2-6.4-47.4-15.5c-12.1-7.6-20.7-21.5-19.9-36.1C866.9,761.9,877.3,746,891.6,737.4
		L891.6,737.4z"/>
	<path class="st0" d="M229.9,750.1c31.7-26.7,81.8-26.2,114.2-0.8c-7.7,10.3-16,20.2-23.9,30.3c-12.4-7.8-27.3-11.7-42-9.3
		c-14.2,1.9-27.8,10.8-33.5,24.2c-9.7,20.2-4.9,47.4,13.2,61.3c19.3,14.4,48.7,11.7,65.9-4.9c9.5,9,18.2,18.7,27.5,27.8
		c-31,32.8-87.9,35.1-121.9,5.7c-19.2-16.5-29.2-42.3-28.5-67.4C200.4,792.1,210.6,766.5,229.9,750.1L229.9,750.1z"/>
	<path class="st0" d="M70.8,732.3c19.9-3.1,41-0.2,58.4,10c19.1,10.4,33,29.2,38.9,50.1c6.3,23.4,3.8,49.4-8.4,70.5
		c-11.8,20.3-32.6,35-55.6,39.6c-20.7,3.8-43,1.4-61.3-9.3c-18.4-10-32.3-27.7-38.4-47.6c-7.6-22.9-5.3-48.8,6-70.1
		C22.2,752.4,45.5,736.2,70.8,732.3L70.8,732.3z M72.5,771.5C59.3,775,47.9,784.7,43,797.5c-5.5,12.5-5.6,27.1-0.3,39.7
		c5.6,15.1,20.3,26.1,36.3,27.7c8.8,0.8,18.1,0.4,26.3-3.2c14-5.8,24.4-19.3,26.5-34.3c2.1-12.8,0.3-26.8-7.1-37.7
		c-6.8-10.5-18.5-17-30.5-19.3C86.9,769.7,79.5,769.7,72.5,771.5L72.5,771.5z"/>
	<path class="st0" d="M665.1,735c13.2-0.2,26.3-0.1,39.5,0c-0.1,26.3-0.1,52.7,0.1,79c0.2,13.9,1.5,28.9,10.1,40.4
		c15.3,19.7,49.6,17.7,63.2-2.9c5.9-9.2,7.8-20.3,7.8-31.1c0.1-28.5,0.1-57,0-85.5c13.2,0,26.3,0,39.5,0c0,55.1,0.1,110.3,0,165.4
		c-11.5,0.3-22.9,0-34.4,0.2c-0.3-5.2-0.7-10.4-1.2-15.6c-27,24-71.9,26-99.9,2.6c-14.4-11.9-21.6-30.4-23.3-48.6
		C663.9,804.4,665.6,769.6,665.1,735L665.1,735z"/>
	<path class="st0" d="M376.2,834.1c-1.1-33.1-0.6-66.1-0.7-99.2c13.2,0,26.4-0.1,39.6,0.1c0,27.9-0.1,55.9,0.2,83.9
		c0.3,13.1,2.4,27.6,11.6,37.7c16.1,17.2,47.5,14.7,61-4.5c6.6-9.6,8.8-21.5,8.8-33.5l-0.3-83.6c13-0.3,26,0,39-0.2
		c0.4,55.2,0,110.3,0.2,165.5c-11.3,0-22.7,0.5-34-0.2c-0.9-5-1-10.2-1.5-15.2c-28.6,25.3-77.8,26.3-104.7-2
		C382.6,870,377.6,851.7,376.2,834.1L376.2,834.1z"/>
</g>
</svg>
