<?xml version="1.0" encoding="utf-8"?>
<!-- Generator: Adobe Illustrator 23.0.1, SVG Export Plug-In . SVG Version: 6.00 Build 0)  -->
<svg version="1.1" id="Layer_1" xmlns="http://www.w3.org/2000/svg" xmlns:xlink="http://www.w3.org/1999/xlink" x="0px" y="0px"
	 viewBox="0 0 1032.9 1032.9" style="enable-background:new 0 0 1032.9 1032.9;" xml:space="preserve">
<style type="text/css">
	.st0{fill:#0070D1;}
</style>
<path class="st0" d="M20.9,699.7c-38.7,25.8-25.8,74.8,56.8,98.1c85.2,28.4,178.1,36.1,268.4,20.6c5.2,0,10.3-2.6,12.9-2.6V728
	l-87.7,28.4c-33.5,10.3-67.1,12.9-100.6,5.2c-25.8-7.7-20.6-23.2,10.3-36.1L359,663.5V568l-247.7,85.2
	C80.3,663.5,49.3,679,20.9,699.7L20.9,699.7z M619.6,312.6v250.3c105.8,51.6,188.4,0,188.4-134.2c0-136.8-49-198.7-191-247.7
	c-74.8-25.8-152.3-49-229.7-64.5v745.8L568,916.4V289.3c0-28.4,0-49,20.6-41.3C617,255.8,619.6,284.2,619.6,312.6L619.6,312.6z
	 M955.1,640.3c-74.8-25.8-154.8-36.1-232.3-28.4c-41.3,2.6-80,12.9-116.1,25.8l-7.7,2.6v100.6L766.7,679
	c33.5-10.3,67.1-12.9,100.6-5.2c25.8,7.7,20.6,23.2-10.3,36.1L599,805.5v98.1l356.1-131.6c25.8-10.3,49-23.2,69.7-43.9
	C1042.8,702.2,1035.1,666.1,955.1,640.3L955.1,640.3z"/>
</svg>
